<svg xmlns="http://www.w3.org/2000/svg" width="131.924" height="137.29" viewBox="0 0 131.924 137.29">
  <g id="Group_4919" data-name="Group 4919" transform="translate(-6378 -3005.274)">
    <g id="Group_4903" data-name="Group 4903" transform="translate(6378 3005.274)">
      <path id="Path_5512" data-name="Path 5512" d="M6335,1442.515q12.93-.119,25.862-.236c1.384-.013,2.767,0,4.685,0a23.277,23.277,0,0,0-1.454-1.872c-4.948-4.983-9.849-10.016-14.9-14.891-2.031-1.958-1.8-3.365.091-5.238,12.036-11.946,23.991-23.974,36-35.944a24.242,24.242,0,0,1,3.1-2.182c-4.476-4.4-8.254-8.25-12.232-11.884-.614-.562-2.208-.4-3.224-.121-15.756,4.386-31.06-4.141-35.19-19.715a27.365,27.365,0,0,1,.349-15.415c.97-3.115,2.371-3.465,4.675-1.168,5.178,5.162,10.311,10.369,15.28,15.374,4.151-4.186,8.134-8.2,12.49-12.595-4.725-4.608-9.837-9.555-14.9-14.542-3-2.951-2.67-4.4,1.327-5.409,10.426-2.623,19.826-.466,27.421,7.155,7.719,7.745,9.641,17.323,6.79,27.776a4.075,4.075,0,0,0,1.252,4.637c5.967,5.934,11.808,12,17.811,18.13,1.043-.94,1.72-1.5,2.34-2.116q11.6-11.6,23.181-23.225c.77-.774,1.793-1.584,2.037-2.546,1.7-6.74,8.329-8.209,12.761-11.99.507-.432,2.33.062,3.1.68,1.786,1.439,3.248,3.267,4.938,4.837,1.5,1.392,1.341,2.731.247,4.237-2.123,2.919-4.169,5.894-6.333,8.78a4.546,4.546,0,0,1-2.229,1.867c-3.331.629-5.332,3-7.524,5.191-7.657,7.655-15.336,15.288-23.445,23.364,2.865,2.733,5.584,5.234,8.2,7.842,11.013,10.981,21.952,22.04,33.021,32.967,2.886,2.848,5.531,5.722,6.409,9.819v1.807c-.12.156-.325.3-.35.469-.64,4.5-2.949,7.63-7.451,8.794-4.467,1.156-8.2-.123-11.464-3.429-10.442-10.569-20.988-21.036-31.479-31.558-1.326-1.332-2.562-2.753-3.266-3.513L6377,1442.175l5.051.232v3.722H6335Zm65.426-72.663c-4.53-4.473-8.372-8.423-12.4-12.174-1.887-1.757-2.206-3.316-1.261-5.777a23.555,23.555,0,0,0-13.771-30.755,19.644,19.644,0,0,0-13.376-.7c5.119,5.072,9.827,9.839,14.659,14.474,1.892,1.813,1.848,3.153-.041,4.958-4.352,4.159-8.54,8.49-12.8,12.749-2.746,2.746-3.067,2.757-5.781.019-4.578-4.611-9.137-9.238-13.925-14.083a8.914,8.914,0,0,0-.633,1.5c-2.748,17.125,14.168,31.62,30.626,25.941,3.808-1.314,5.944-.649,8.473,2.155,4.163,4.613,8.67,8.922,13.183,13.2.685.649,2.178.447,3.3.639.115-1.041.706-2.392.264-3.069-2.47-3.785-2.574-3.747.65-6.919A30.669,30.669,0,0,1,6400.427,1369.852Zm-9.3,15.318-37.931,37.879,2.591,3.489c1.133-1.348,1.785-2.248,2.561-3.026q13.062-13.114,26.17-26.182a9.129,9.129,0,0,1,10.3-1.65,7.58,7.58,0,0,1,4.011,8.613,11.806,11.806,0,0,1-2.942,5.658c-6.524,6.808-13.253,13.417-19.944,20.064-2.682,2.664-5.447,5.241-7.978,7.668,1.269,1.395,2.167,2.382,2.79,3.064q19.058-18.946,38.066-37.839c-1.838-2.752-2.3-5.825.027-8.506,2.788-3.213,6.274-2.128,9.611-.6l2.408-2.587-18.1-18.2-2.787,2.428c1.676,3.28,2.4,6.427-.249,9.319C6397.7,1386.978,6394.718,1386.987,6391.124,1385.17Zm32.9,8.441c-1.385,1.557-2.589,2.876-3.753,4.23-1.447,1.679-2.816,1.584-4.288,0-1.083-1.168-2.224-2.638-3.947-.828-1.661,1.741-.257,2.876.882,4.018q7.54,7.564,15.094,15.113,11.592,11.6,23.192,23.19c3.161,3.139,6.375,3.306,9.3.647,3.067-2.791,3.147-6.567.023-9.751-5.62-5.728-11.332-11.362-17-17.044C6437.166,1406.811,6430.816,1400.429,6424.024,1393.611Zm-58.969,41.225a5.1,5.1,0,0,0,.72-.556q13.832-13.823,27.641-27.666c2.359-2.373,2.454-4.489.473-6.537-2.073-2.144-4.233-2.038-6.775.424-2.16,2.092-4.248,4.259-6.383,6.379-7.32,7.272-14.645,14.538-22.161,22Zm86.338-96.03c-2.192,1.566-4.259,2.965-6.234,4.484a14.137,14.137,0,0,0-2.738,2.678c-1.751,2.359-3.094,5.07-5.078,7.195-4.583,4.907-9.421,9.579-14.209,14.292-3.2,3.149-6.488,6.205-9.552,9.127l3.168,3.735c7.673-7.693,15.082-15.16,22.539-22.578,2.593-2.578,4.8-5.713,8.784-6.452a2.682,2.682,0,0,0,1.362-1.112c1.873-2.566,3.693-5.172,5.581-7.835Z" transform="translate(-6335.001 -1308.839)"/>
      <path id="Path_5513" data-name="Path 5513" d="M6506.69,1318.675v3.707h-8.136v-3.707Z" transform="translate(-6400.029 -1310.058)"/>
      <path id="Path_5514" data-name="Path 5514" d="M6520.243,1322.9c-.185-1.332-.37-2.665-.59-4.257h8.375v3.756l-7.795.5Z" transform="translate(-6408.418 -1310.044)"/>
      <path id="Path_5515" data-name="Path 5515" d="M6513.125,1304.37h3.645v8.008h-3.645Z" transform="translate(-6405.824 -1304.37)"/>
      <path id="Path_5516" data-name="Path 5516" d="M6517.6,1325.521c-.23,1.564-.52,3.123-.672,4.695-.1,1.073-.021,2.165-.021,3.373h-3.874v-8.344l4.575.279Z" transform="translate(-6405.787 -1312.67)"/>
      <path id="Path_5517" data-name="Path 5517" d="M6421.309,1526.161h3.764v3.516h-3.764Z" transform="translate(-6369.317 -1392.555)"/>
      <path id="Path_5518" data-name="Path 5518" d="M6528.088,1510.162a3.709,3.709,0,0,1-3.811-4.085,3.844,3.844,0,0,1,4.38-3.858,3.734,3.734,0,0,1,3.788,4.123C6532.371,1508.887,6530.793,1510.271,6528.088,1510.162Z" transform="translate(-6410.255 -1383.032)"/>
    </g>
  </g>
</svg>