<svg xmlns="http://www.w3.org/2000/svg" xmlns:xlink="http://www.w3.org/1999/xlink" viewBox="0 0 692.48 598.31"><defs><style>.cls-1,.cls-4,.cls-5,.cls-6,.cls-7,.cls-8,.cls-9{stroke:#42210b;stroke-miterlimit:10;}.cls-1{fill:url(#linear-gradient);}.cls-2{fill:url(#linear-gradient-2);}.cls-3{fill:url(#linear-gradient-3);}.cls-4{fill:url(#linear-gradient-4);}.cls-5{fill:url(#linear-gradient-5);}.cls-6{fill:url(#linear-gradient-6);}.cls-7{fill:url(#linear-gradient-7);}.cls-8{fill:url(#linear-gradient-8);}.cls-9{fill:url(#linear-gradient-9);}</style><linearGradient id="linear-gradient" x1="748" y1="392" x2="748" y2="392" gradientUnits="userSpaceOnUse"><stop offset="0.23" stop-color="#00b3d4"/><stop offset="0.41" stop-color="#00b0d5"/><stop offset="0.53" stop-color="#00a8d7"/><stop offset="0.63" stop-color="#0099db"/><stop offset="0.72" stop-color="#0084e1"/><stop offset="0.8" stop-color="#0069e8"/><stop offset="0.82" stop-color="#0064e9"/></linearGradient><linearGradient id="linear-gradient-2" x1="62" y1="310.87" x2="754.48" y2="310.87" gradientUnits="userSpaceOnUse"><stop offset="0" stop-color="#00abe9"/><stop offset="0.2" stop-color="#02aaec"/><stop offset="0.33" stop-color="#07a7f4"/><stop offset="0.42" stop-color="#0ea3ff"/><stop offset="0.54" stop-color="#0c9bfa"/><stop offset="0.73" stop-color="#0885eb"/><stop offset="0.97" stop-color="#0161d4"/><stop offset="1" stop-color="#005bd0"/></linearGradient><linearGradient id="linear-gradient-3" x1="582.72" y1="123.74" x2="662.21" y2="123.74" xlink:href="#linear-gradient-2"/><linearGradient id="linear-gradient-4" x1="199.45" y1="501.46" x2="413.03" y2="501.46" gradientUnits="userSpaceOnUse"><stop offset="0" stop-color="#b90005"/><stop offset="0.4" stop-color="#cc1316"/><stop offset="1" stop-color="#f03635"/><stop offset="1" stop-color="#0ea3ff"/></linearGradient><linearGradient id="linear-gradient-5" x1="191" y1="306.03" x2="421.61" y2="306.03" xlink:href="#linear-gradient-4"/><linearGradient id="linear-gradient-6" x1="263.43" y1="199.76" x2="337.77" y2="199.76" xlink:href="#linear-gradient-4"/><linearGradient id="linear-gradient-7" x1="278.8" y1="160.29" x2="288.8" y2="160.29" xlink:href="#linear-gradient-4"/><linearGradient id="linear-gradient-8" x1="618.22" y1="217.54" x2="628.57" y2="217.54" gradientTransform="translate(-12.59 22.37) scale(0.94 0.94)" gradientUnits="userSpaceOnUse"><stop offset="0" stop-color="#00abe9"/><stop offset="0.17" stop-color="#02aaec"/><stop offset="0.28" stop-color="#07a7f4"/><stop offset="0.35" stop-color="#0ea3ff"/><stop offset="0.51" stop-color="#0c9bf9"/><stop offset="0.75" stop-color="#0785e7"/><stop offset="1" stop-color="#0068d0"/></linearGradient><linearGradient id="linear-gradient-9" x1="327.14" y1="412.81" x2="659.14" y2="412.81" gradientTransform="matrix(0.93, -0.16, 0.16, 0.93, -38.62, 123.42)" xlink:href="#linear-gradient-8"/></defs><title>final_sticker</title><g id="Layer_4" data-name="Layer 4"><path class="cls-1" d="M748,392" transform="translate(-62 -78)"/><path class="cls-2" d="M443,429.38c-172,0-311.49-68.31-311.49-152.58S271,124.22,443,124.22c84,0,160.19,16.29,216.21,42.75-63.08-40-152.19-65-251-65C217,102,62,195.51,62,310.87S217,519.74,408.24,519.74s346.24-93.52,346.24-208.87A128,128,0,0,0,753,291.65C737.76,369,604.79,429.38,443,429.38Z" transform="translate(-62 -78)"/><path class="cls-3" d="M662.21,169.48c-11.44-7.06-24.29-14.28-38.54-21.24a443.57,443.57,0,0,0-40.95-17.49L660.52,78Q661.38,123.73,662.21,169.48Z" transform="translate(-62 -78)"/></g><g id="Layer_2" data-name="Layer 2"><path class="cls-4" d="M394.57,334.94c-25.75-.6-44.42,71.28-59.84,115.62-49,140.86-138.46,214.68-135.19,217.35C205.43,672.73,447,392.53,409,343,408.6,342.55,402.73,335.14,394.57,334.94Z" transform="translate(-62 -78)"/><path class="cls-5" d="M400.1,176.82c-39-28.29-148.58,22.68-189.21,112.28-24.61,54.29-28.78,133.54,1.19,150.51C260.64,467.12,381.37,321.28,376.45,315c-4.48-5.7-115,100.77-145.45,75.26-15.66-13.12-2.06-54.42,2.36-67.85,23.13-70.23,90.9-94.67,112.34-97.47,9.07-1.18,20.3-2.65,30.75,3.7,6.9,4.19,8.21,8.61,15.37,11.1,8.81,3.08,20.88,1.31,26-4.93C427.47,223.1,417.62,189.55,400.1,176.82Z" transform="translate(-62 -78)"/><polygon class="cls-6" points="324.3 234.97 298.31 196.69 337.77 164.56 263.43 188.56 324.3 234.97"/><circle class="cls-7" cx="283.8" cy="160.29" r="5"/><ellipse class="cls-8" cx="573.55" cy="227.27" rx="4.87" ry="4.61" transform="translate(-91.96 21.26) rotate(-9.64)"/><path class="cls-9" d="M598.8,175.3c-.92-1.64-23.1,12.7-89.32,49.57l-9.7,5.38-1.8,1.07,1.82,2.35,25.62,31.58-47.63,21.32-.39.05-2.25,1C343.25,568.57,348.52,646.34,375,667.56c46.93,37.62,209.68-63.08,200.1-108.82-6.66-31.79-97.11-39.8-97.82-37.22-.6,2.19,63,11,67.31,37.15,5.52,33.77-88.4,94.92-121,73.07-28-18.76-21.86-106.06,72.95-346.61L574.12,279l-58.77-37.16C581.8,192.07,599.66,176.84,598.8,175.3Z" transform="translate(-62 -78)"/></g></svg>